<svg width="80" height="80" viewBox="0 0 80 80" fill="none" xmlns="http://www.w3.org/2000/svg">
    <path d="M0 18.1818C0 8.14028 8.14028 0 18.1818 0H36.3636V36.3636H18.1818C8.14028 36.3636 0 28.2234 0 18.1818Z" fill="#EC5D59"/>
    <path d="M80 18.1818C80 8.14028 71.8597 0 61.8182 0C51.7766 0 43.6364 8.14028 43.6364 18.1818C43.6364 28.2234 51.7766 36.3636 61.8182 36.3636C71.8597 36.3636 80 28.2234 80 18.1818Z" fill="#02C39A"/>
    <path d="M36.3636 61.8182C36.3636 51.7766 28.2234 43.6364 18.1818 43.6364H0V80H18.1818C28.2234 80 36.3636 71.8597 36.3636 61.8182Z" fill="#F28D79"/>
    <path d="M80 43.6364H43.6364V80H80V43.6364Z" fill="#437192"/>
</svg>
